<svg width="20" height="20" viewBox="0 0 20 20" fill="none" xmlns="http://www.w3.org/2000/svg">
<g clip-path="url(#clip0_933_7490)">
<path d="M11.9 1.66797C12.2498 1.66806 12.5907 1.77821 12.8744 1.98281C13.1581 2.18741 13.3703 2.47609 13.4808 2.80797L13.9333 4.16797H16.6667C16.8877 4.16797 17.0996 4.25577 17.2559 4.41205C17.4122 4.56833 17.5 4.78029 17.5 5.0013C17.5 5.22232 17.4122 5.43428 17.2559 5.59056C17.0996 5.74684 16.8877 5.83464 16.6667 5.83464L16.6642 5.8938L15.9417 16.013C15.8966 16.6435 15.6143 17.2335 15.1517 17.6643C14.6891 18.095 14.0805 18.3346 13.4483 18.3346H6.55167C5.91955 18.3346 5.31092 18.095 4.84831 17.6643C4.38569 17.2335 4.10342 16.6435 4.05833 16.013L3.33583 5.89297C3.33433 5.87356 3.33349 5.8541 3.33333 5.83464C3.11232 5.83464 2.90036 5.74684 2.74408 5.59056C2.5878 5.43428 2.5 5.22232 2.5 5.0013C2.5 4.78029 2.5878 4.56833 2.74408 4.41205C2.90036 4.25577 3.11232 4.16797 3.33333 4.16797H6.06667L6.51917 2.80797C6.62975 2.47596 6.84203 2.18718 7.12592 1.98256C7.4098 1.77795 7.75089 1.66788 8.10083 1.66797H11.9ZM14.9975 5.83464H5.0025L5.72083 15.8938C5.73579 16.104 5.82981 16.3007 5.98397 16.4443C6.13812 16.588 6.34096 16.6679 6.55167 16.668H13.4483C13.659 16.6679 13.8619 16.588 14.016 16.4443C14.1702 16.3007 14.2642 16.104 14.2792 15.8938L14.9975 5.83464ZM8.33333 8.33464C8.53744 8.33466 8.73445 8.4096 8.88698 8.54523C9.03951 8.68086 9.13695 8.86776 9.16083 9.07047L9.16667 9.16797V13.3346C9.16643 13.547 9.0851 13.7513 8.93929 13.9058C8.79349 14.0602 8.59421 14.1532 8.38217 14.1656C8.17014 14.1781 7.96135 14.1091 7.79847 13.9727C7.6356 13.8364 7.53092 13.643 7.50583 13.4321L7.5 13.3346V9.16797C7.5 8.94695 7.5878 8.73499 7.74408 8.57871C7.90036 8.42243 8.11232 8.33464 8.33333 8.33464ZM11.6667 8.33464C11.8877 8.33464 12.0996 8.42243 12.2559 8.57871C12.4122 8.73499 12.5 8.94695 12.5 9.16797V13.3346C12.5 13.5556 12.4122 13.7676 12.2559 13.9239C12.0996 14.0802 11.8877 14.168 11.6667 14.168C11.4457 14.168 11.2337 14.0802 11.0774 13.9239C10.9211 13.7676 10.8333 13.5556 10.8333 13.3346V9.16797C10.8333 8.94695 10.9211 8.73499 11.0774 8.57871C11.2337 8.42243 11.4457 8.33464 11.6667 8.33464ZM11.9 3.33464H8.1L7.8225 4.16797H12.1775L11.9 3.33464Z" fill="#404040"/>
</g>
<defs>
<clipPath id="clip0_933_7490">
<rect width="20" height="20" fill="white"/>
</clipPath>
</defs>
</svg>
