<svg width="24" height="24" viewBox="0 0 24 24" fill="none" xmlns="http://www.w3.org/2000/svg">
<path d="M14.4108 2.88905C14.5542 2.74545 14.7451 2.6591 14.9476 2.64621C15.1501 2.63333 15.3504 2.69478 15.5108 2.81905L15.5892 2.88905L17.9458 5.24572C18.0953 5.39568 18.1821 5.59691 18.1885 5.80854C18.195 6.02016 18.1207 6.22631 17.9806 6.38512C17.8406 6.54392 17.6454 6.64347 17.4346 6.66355C17.2238 6.68363 17.0133 6.62273 16.8458 6.49322L16.7675 6.42405L15.8333 5.48989V15.8349C15.8331 16.0473 15.7518 16.2516 15.606 16.406C15.4602 16.5605 15.2609 16.6534 15.0488 16.6659C14.8368 16.6783 14.628 16.6093 14.4651 16.473C14.3023 16.3367 14.1976 16.1433 14.1725 15.9324L14.1667 15.8349V5.48989L13.2325 6.42405C13.0829 6.5751 12.8812 6.66325 12.6687 6.67045C12.4562 6.67766 12.249 6.60339 12.0895 6.46283C11.93 6.32227 11.8302 6.12606 11.8107 5.91437C11.7911 5.70267 11.8531 5.49149 11.9842 5.32405L12.0533 5.24572L14.4108 2.88905ZM10.8333 15.0016C11.0457 15.0018 11.25 15.0831 11.4045 15.2289C11.5589 15.3747 11.6519 15.574 11.6643 15.786C11.6768 15.9981 11.6078 16.2069 11.4714 16.3697C11.3351 16.5326 11.1417 16.6373 10.9308 16.6624L10.8333 16.6682H3.33333C3.12093 16.668 2.91664 16.5867 2.76219 16.4408C2.60775 16.295 2.5148 16.0958 2.50236 15.8837C2.48991 15.6717 2.5589 15.4629 2.69522 15.3C2.83155 15.1371 3.02492 15.0325 3.23583 15.0074L3.33333 15.0016H10.8333ZM10.8333 9.16822C11.0543 9.16822 11.2663 9.25602 11.4226 9.4123C11.5789 9.56858 11.6667 9.78054 11.6667 10.0016C11.6667 10.2226 11.5789 10.4345 11.4226 10.5908C11.2663 10.7471 11.0543 10.8349 10.8333 10.8349H3.33333C3.11232 10.8349 2.90036 10.7471 2.74408 10.5908C2.5878 10.4345 2.5 10.2226 2.5 10.0016C2.5 9.78054 2.5878 9.56858 2.74408 9.4123C2.90036 9.25602 3.11232 9.16822 3.33333 9.16822H10.8333ZM9.16667 3.33489C9.38768 3.33489 9.59964 3.42268 9.75592 3.57896C9.9122 3.73524 10 3.9472 10 4.16822C10 4.38923 9.9122 4.60119 9.75592 4.75747C9.59964 4.91375 9.38768 5.00155 9.16667 5.00155H3.33333C3.11232 5.00155 2.90036 4.91375 2.74408 4.75747C2.5878 4.60119 2.5 4.38923 2.5 4.16822C2.5 3.9472 2.5878 3.73524 2.74408 3.57896C2.90036 3.42268 3.11232 3.33489 3.33333 3.33489H9.16667Z" fill="#2C2A29" fill-opacity="0.75"/>
</svg>
